<svg width="160" height="75" viewBox="0 0 160 75" fill="none" xmlns="http://www.w3.org/2000/svg">
<path d="M66.0246 31.3052C63.3864 31.173 61.0863 32.6754 60.0523 34.8846C59.7768 35.4735 59.1801 35.8485 58.5278 35.8485H58.5157C57.8682 35.8485 57.269 35.4831 56.996 34.899C56.3751 33.5625 55.2879 32.4831 53.9446 31.8653C53.3575 31.5961 52.9903 30.9975 52.9903 30.3533V30.3461C52.9903 29.6947 53.3672 29.1009 53.9615 28.8269C56.1842 27.8004 57.6942 25.5096 57.5638 22.8846C57.4043 19.7187 54.8192 17.1538 51.6349 17.0072C48.0568 16.8413 45.1044 19.6778 45.1044 23.2019C45.1044 25.7019 46.5903 27.8533 48.7309 28.8341C49.3204 29.1033 49.6852 29.7019 49.6852 30.3461V30.3533C49.6852 31.0048 49.3083 31.5985 48.714 31.8725C46.4912 32.899 44.9788 35.1899 45.1117 37.8173C45.2711 40.9759 47.8442 43.536 51.0188 43.6923C53.6595 43.8221 55.962 42.3149 56.9936 40.1033C57.269 39.512 57.8658 39.1346 58.5205 39.1346C59.168 39.1346 59.7696 39.5 60.0402 40.0865C61.0259 42.2187 63.1907 43.6995 65.7057 43.6995C69.2476 43.6995 72.0985 40.762 71.9318 37.2019C71.7844 34.036 69.2089 31.4615 66.0271 31.3028L66.0246 31.3052Z" fill="#036EF2"/>
<path d="M28.8375 37.1828C28.678 34.0266 26.1074 31.4665 22.9352 31.3078C20.2776 31.1756 17.963 32.6996 16.9386 34.9328C16.6801 35.4953 16.11 35.8511 15.4866 35.8511H15.3682C14.7473 35.8511 14.1747 35.4953 13.9162 34.9328C12.8942 32.6996 10.5797 31.1732 7.91969 31.3078C4.74748 31.4665 2.17443 34.0266 2.01739 37.1828C1.88451 39.8078 3.39693 42.0987 5.61724 43.1251C6.21158 43.3991 6.59089 43.9953 6.59089 44.6467C6.59089 45.3006 6.21158 45.8943 5.61724 46.1708C3.39693 47.1972 1.88692 49.4857 2.01739 52.1131C2.17685 55.279 4.76197 57.8439 7.94627 57.9905C11.5244 58.1564 14.4767 55.3198 14.4767 51.7958C14.4767 49.2982 12.9909 47.1467 10.8527 46.1636C10.2632 45.8919 9.89599 45.2934 9.89599 44.6467C9.89599 44.0001 10.2632 43.4016 10.8527 43.1323C12.2009 42.5145 13.2881 41.4304 13.909 40.0891C14.1747 39.5145 14.7401 39.1371 15.3755 39.1371H15.4794C16.1148 39.1371 16.6801 39.5145 16.9459 40.0891C17.5668 41.4304 18.654 42.5145 20.0021 43.1323C20.5916 43.404 20.9589 44.0025 20.9589 44.6467C20.9589 45.3006 20.5796 45.8943 19.9852 46.1708C17.7649 47.1972 16.2549 49.4857 16.3854 52.1131C16.5448 55.279 19.13 57.8439 22.3143 57.9905C25.8924 58.1564 28.8447 55.3198 28.8447 51.7958C28.8447 49.2982 27.3589 47.1467 25.2207 46.1636C24.6312 45.8919 24.264 45.2934 24.264 44.6467C24.264 43.9929 24.6433 43.3992 25.2376 43.1227C27.4579 42.0963 28.9679 39.8054 28.8375 37.1804V37.1828Z" fill="#036EF2"/>
<path d="M43.2006 8.90867C43.2006 5.38463 40.2483 2.54809 36.6701 2.71395C33.4858 2.86059 30.9007 5.42549 30.7413 8.59136C30.6108 11.2188 32.1232 13.5072 34.3435 14.5337C34.9379 14.8077 35.3148 15.4015 35.3148 16.0529V16.0601C35.3148 16.7043 34.9475 17.3005 34.3604 17.5721C32.2199 18.5529 30.734 20.7067 30.734 23.2043C30.734 25.7019 32.2199 27.8558 34.3604 28.8366C34.9499 29.1058 35.3148 29.7043 35.3148 30.3486V30.3558C35.3148 31 34.9475 31.5962 34.3604 31.8678C32.2199 32.8486 30.734 35.0024 30.734 37.5C30.734 39.9976 32.2199 42.1515 34.3604 43.1322C34.9499 43.4015 35.3148 44 35.3148 44.6442V44.6515C35.3148 45.2957 34.9475 45.8918 34.3604 46.1635C32.2199 47.1442 30.734 49.2981 30.734 51.7957C30.734 54.2933 32.2199 56.4471 34.3604 57.4279C34.9499 57.6971 35.3148 58.2957 35.3148 58.9399V58.9471C35.3148 59.5986 34.9379 60.1923 34.3435 60.4664C32.1208 61.4928 30.6084 63.7837 30.7413 66.4087C30.9007 69.5745 33.4858 72.1394 36.6701 72.2861C40.2483 72.4519 43.2006 69.6154 43.2006 66.0914C43.2006 63.5914 41.7148 61.4399 39.5742 60.4592C38.9847 60.1899 38.6199 59.5914 38.6199 58.9471V58.9399C38.6199 58.2957 38.9871 57.6995 39.5742 57.4279C41.7148 56.4471 43.2006 54.2933 43.2006 51.7957C43.2006 49.2981 41.7148 47.1442 39.5742 46.1635C38.9847 45.8942 38.6199 45.2957 38.6199 44.6515V44.6442C38.6199 44 38.9871 43.4039 39.5742 43.1322C41.7148 42.1515 43.2006 39.9976 43.2006 37.5C43.2006 35.0024 41.7148 32.8486 39.5742 31.8678C38.9847 31.5986 38.6199 31 38.6199 30.3558V30.3486C38.6199 29.7043 38.9871 29.1082 39.5742 28.8366C41.7148 27.8558 43.2006 25.7019 43.2006 23.2043C43.2006 20.7067 41.7148 18.5529 39.5742 17.5721C38.9847 17.3029 38.6199 16.7043 38.6199 16.0601V16.0529C38.6199 15.4087 38.9871 14.8125 39.5742 14.5409C41.7148 13.5601 43.2006 11.4063 43.2006 8.90867Z" fill="#036EF2"/>
<path d="M77.5562 34.0555C77.5272 33.8584 77.6819 33.6853 77.88 33.6853H108.326C108.508 33.6853 108.655 33.8319 108.655 34.0122V40.2358C108.655 40.4161 108.508 40.5627 108.326 40.5627H97.7782C97.597 40.5627 97.4496 40.7093 97.4496 40.8896V70.5531C97.4496 70.7334 97.3023 70.88 97.1211 70.88H89.559C89.3778 70.88 89.2304 70.7334 89.2304 70.5531V40.8896C89.2304 40.7093 89.083 40.5627 88.9018 40.5627H79.3658C79.1653 40.5627 79.0107 40.3896 79.0421 40.1925L77.5538 34.0555H77.5562Z" fill="#04165D"/>
<path d="M113.978 33.6853H121.716C121.849 33.6853 121.955 33.7935 121.955 33.9233V70.6348C121.955 70.767 121.846 70.8728 121.716 70.8728H113.978C113.845 70.8728 113.738 70.7646 113.738 70.6348V33.9233C113.738 33.7911 113.847 33.6853 113.978 33.6853Z" fill="#04165D"/>
<path d="M134.241 58.5337C134.376 58.5337 134.482 58.6467 134.485 58.7813C134.613 63.5458 138.43 65.4111 142.752 65.4111C145.632 65.4111 150.029 64.577 150.029 60.7741C150.029 56.7621 144.429 56.0866 138.93 54.6275C133.38 53.1684 127.78 51.0337 127.78 44.053C127.78 36.4496 135.004 32.803 141.759 32.803C149.476 32.803 156.579 36.1179 156.729 44.5145C156.731 44.6587 156.61 44.7837 156.465 44.7837H149.002C148.872 44.7837 148.768 44.678 148.756 44.5482C148.398 40.2621 145.248 39.1563 141.392 39.1563C138.775 39.1563 135.739 40.2501 135.739 43.3751C135.739 46.2405 137.519 46.6035 146.888 49.0001C149.611 49.678 157.988 51.3967 157.988 59.8342C157.988 66.6587 152.595 71.7621 142.441 71.7621C134.248 71.7621 126.57 67.7789 126.524 58.7958C126.524 58.6539 126.642 58.5313 126.785 58.5313H134.241V58.5337Z" fill="#04165D"/>
</svg>
